<mxfile host="app.diagrams.net" modified="2024-05-07T02:19:40.528Z" agent="Mozilla/5.0 (Macintosh; Intel Mac OS X 10_15_7) AppleWebKit/537.36 (KHTML, like Gecko) Chrome/124.0.0.0 Safari/537.36" etag="eSD89QadUTswckNnUTrT" version="24.3.1" type="device">
  <diagram name="Page-1" id="LRXsnM11Aj7lk1eAZc-d">
    <mxGraphModel dx="2163" dy="1933" grid="1" gridSize="10" guides="1" tooltips="1" connect="1" arrows="1" fold="1" page="1" pageScale="1" pageWidth="850" pageHeight="1100" math="0" shadow="0">
      <root>
        <mxCell id="0" />
        <mxCell id="1" parent="0" />
        <mxCell id="OMwhVyexWKOSLGBDn62Z-41" style="edgeStyle=orthogonalEdgeStyle;rounded=0;orthogonalLoop=1;jettySize=auto;html=1;exitX=0.5;exitY=0;exitDx=0;exitDy=0;entryX=0.5;entryY=1;entryDx=0;entryDy=0;" edge="1" parent="1" source="OMwhVyexWKOSLGBDn62Z-1" target="OMwhVyexWKOSLGBDn62Z-7">
          <mxGeometry relative="1" as="geometry" />
        </mxCell>
        <mxCell id="OMwhVyexWKOSLGBDn62Z-42" style="edgeStyle=orthogonalEdgeStyle;rounded=0;orthogonalLoop=1;jettySize=auto;html=1;exitX=1;exitY=0;exitDx=0;exitDy=0;" edge="1" parent="1" source="OMwhVyexWKOSLGBDn62Z-1" target="OMwhVyexWKOSLGBDn62Z-8">
          <mxGeometry relative="1" as="geometry" />
        </mxCell>
        <mxCell id="OMwhVyexWKOSLGBDn62Z-45" style="edgeStyle=orthogonalEdgeStyle;rounded=0;orthogonalLoop=1;jettySize=auto;html=1;exitX=1;exitY=1;exitDx=0;exitDy=0;entryX=0.5;entryY=0;entryDx=0;entryDy=0;" edge="1" parent="1" source="OMwhVyexWKOSLGBDn62Z-1" target="OMwhVyexWKOSLGBDn62Z-9">
          <mxGeometry relative="1" as="geometry" />
        </mxCell>
        <mxCell id="OMwhVyexWKOSLGBDn62Z-46" style="edgeStyle=orthogonalEdgeStyle;rounded=0;orthogonalLoop=1;jettySize=auto;html=1;exitX=0.5;exitY=1;exitDx=0;exitDy=0;entryX=0.5;entryY=0;entryDx=0;entryDy=0;" edge="1" parent="1" source="OMwhVyexWKOSLGBDn62Z-1" target="OMwhVyexWKOSLGBDn62Z-10">
          <mxGeometry relative="1" as="geometry" />
        </mxCell>
        <mxCell id="OMwhVyexWKOSLGBDn62Z-90" style="edgeStyle=orthogonalEdgeStyle;rounded=0;orthogonalLoop=1;jettySize=auto;html=1;exitX=0;exitY=0.5;exitDx=0;exitDy=0;entryX=1;entryY=0.5;entryDx=0;entryDy=0;" edge="1" parent="1" source="OMwhVyexWKOSLGBDn62Z-1" target="OMwhVyexWKOSLGBDn62Z-3">
          <mxGeometry relative="1" as="geometry" />
        </mxCell>
        <mxCell id="OMwhVyexWKOSLGBDn62Z-1" value="Administrator" style="rounded=0;whiteSpace=wrap;html=1;" vertex="1" parent="1">
          <mxGeometry x="500" y="230" width="120" height="60" as="geometry" />
        </mxCell>
        <mxCell id="OMwhVyexWKOSLGBDn62Z-22" style="edgeStyle=orthogonalEdgeStyle;rounded=0;orthogonalLoop=1;jettySize=auto;html=1;exitX=0;exitY=0.5;exitDx=0;exitDy=0;entryX=1;entryY=0.5;entryDx=0;entryDy=0;" edge="1" parent="1" source="OMwhVyexWKOSLGBDn62Z-2" target="OMwhVyexWKOSLGBDn62Z-5">
          <mxGeometry relative="1" as="geometry">
            <mxPoint x="160" y="260" as="targetPoint" />
          </mxGeometry>
        </mxCell>
        <mxCell id="OMwhVyexWKOSLGBDn62Z-33" style="edgeStyle=orthogonalEdgeStyle;rounded=0;orthogonalLoop=1;jettySize=auto;html=1;exitX=0.5;exitY=0;exitDx=0;exitDy=0;entryX=0.5;entryY=1;entryDx=0;entryDy=0;" edge="1" parent="1" source="OMwhVyexWKOSLGBDn62Z-2" target="OMwhVyexWKOSLGBDn62Z-4">
          <mxGeometry relative="1" as="geometry" />
        </mxCell>
        <mxCell id="OMwhVyexWKOSLGBDn62Z-37" style="edgeStyle=orthogonalEdgeStyle;rounded=0;orthogonalLoop=1;jettySize=auto;html=1;exitX=0.5;exitY=1;exitDx=0;exitDy=0;entryX=0.5;entryY=0;entryDx=0;entryDy=0;" edge="1" parent="1" source="OMwhVyexWKOSLGBDn62Z-2" target="OMwhVyexWKOSLGBDn62Z-6">
          <mxGeometry relative="1" as="geometry" />
        </mxCell>
        <mxCell id="OMwhVyexWKOSLGBDn62Z-2" value="User" style="rounded=0;whiteSpace=wrap;html=1;" vertex="1" parent="1">
          <mxGeometry x="220" y="230" width="120" height="60" as="geometry" />
        </mxCell>
        <mxCell id="OMwhVyexWKOSLGBDn62Z-91" style="edgeStyle=orthogonalEdgeStyle;rounded=0;orthogonalLoop=1;jettySize=auto;html=1;exitX=0;exitY=0.5;exitDx=0;exitDy=0;entryX=1;entryY=0.5;entryDx=0;entryDy=0;" edge="1" parent="1" source="OMwhVyexWKOSLGBDn62Z-3" target="OMwhVyexWKOSLGBDn62Z-2">
          <mxGeometry relative="1" as="geometry" />
        </mxCell>
        <mxCell id="OMwhVyexWKOSLGBDn62Z-3" value="Survey" style="rhombus;whiteSpace=wrap;html=1;" vertex="1" parent="1">
          <mxGeometry x="385" y="225" width="80" height="70" as="geometry" />
        </mxCell>
        <mxCell id="OMwhVyexWKOSLGBDn62Z-35" style="edgeStyle=orthogonalEdgeStyle;rounded=0;orthogonalLoop=1;jettySize=auto;html=1;exitX=0.5;exitY=0;exitDx=0;exitDy=0;entryX=0.5;entryY=1;entryDx=0;entryDy=0;" edge="1" parent="1" source="OMwhVyexWKOSLGBDn62Z-4" target="OMwhVyexWKOSLGBDn62Z-12">
          <mxGeometry relative="1" as="geometry" />
        </mxCell>
        <mxCell id="OMwhVyexWKOSLGBDn62Z-36" style="edgeStyle=orthogonalEdgeStyle;rounded=0;orthogonalLoop=1;jettySize=auto;html=1;exitX=1;exitY=0.5;exitDx=0;exitDy=0;entryX=0.5;entryY=1;entryDx=0;entryDy=0;" edge="1" parent="1" source="OMwhVyexWKOSLGBDn62Z-4" target="OMwhVyexWKOSLGBDn62Z-13">
          <mxGeometry relative="1" as="geometry" />
        </mxCell>
        <mxCell id="OMwhVyexWKOSLGBDn62Z-89" style="edgeStyle=orthogonalEdgeStyle;rounded=0;orthogonalLoop=1;jettySize=auto;html=1;exitX=0;exitY=0.5;exitDx=0;exitDy=0;entryX=0.5;entryY=1;entryDx=0;entryDy=0;" edge="1" parent="1" source="OMwhVyexWKOSLGBDn62Z-4" target="OMwhVyexWKOSLGBDn62Z-11">
          <mxGeometry relative="1" as="geometry" />
        </mxCell>
        <mxCell id="OMwhVyexWKOSLGBDn62Z-4" value="Select" style="rhombus;whiteSpace=wrap;html=1;" vertex="1" parent="1">
          <mxGeometry x="240" y="120" width="80" height="70" as="geometry" />
        </mxCell>
        <mxCell id="OMwhVyexWKOSLGBDn62Z-24" style="edgeStyle=orthogonalEdgeStyle;rounded=0;orthogonalLoop=1;jettySize=auto;html=1;exitX=0;exitY=0.5;exitDx=0;exitDy=0;" edge="1" parent="1" source="OMwhVyexWKOSLGBDn62Z-5">
          <mxGeometry relative="1" as="geometry">
            <mxPoint x="30" y="260" as="targetPoint" />
          </mxGeometry>
        </mxCell>
        <mxCell id="OMwhVyexWKOSLGBDn62Z-5" value="Perform" style="rhombus;whiteSpace=wrap;html=1;" vertex="1" parent="1">
          <mxGeometry x="80" y="225" width="80" height="70" as="geometry" />
        </mxCell>
        <mxCell id="OMwhVyexWKOSLGBDn62Z-21" value="" style="edgeStyle=orthogonalEdgeStyle;rounded=0;orthogonalLoop=1;jettySize=auto;html=1;" edge="1" parent="1" source="OMwhVyexWKOSLGBDn62Z-6" target="OMwhVyexWKOSLGBDn62Z-20">
          <mxGeometry relative="1" as="geometry" />
        </mxCell>
        <mxCell id="OMwhVyexWKOSLGBDn62Z-6" value="Submit" style="rhombus;whiteSpace=wrap;html=1;" vertex="1" parent="1">
          <mxGeometry x="240" y="320" width="80" height="70" as="geometry" />
        </mxCell>
        <mxCell id="OMwhVyexWKOSLGBDn62Z-52" value="" style="edgeStyle=orthogonalEdgeStyle;rounded=0;orthogonalLoop=1;jettySize=auto;html=1;" edge="1" parent="1" source="OMwhVyexWKOSLGBDn62Z-7" target="OMwhVyexWKOSLGBDn62Z-51">
          <mxGeometry relative="1" as="geometry" />
        </mxCell>
        <mxCell id="OMwhVyexWKOSLGBDn62Z-55" style="edgeStyle=orthogonalEdgeStyle;rounded=0;orthogonalLoop=1;jettySize=auto;html=1;exitX=1;exitY=0;exitDx=0;exitDy=0;" edge="1" parent="1" source="OMwhVyexWKOSLGBDn62Z-7" target="OMwhVyexWKOSLGBDn62Z-54">
          <mxGeometry relative="1" as="geometry" />
        </mxCell>
        <mxCell id="OMwhVyexWKOSLGBDn62Z-7" value="Login" style="rhombus;whiteSpace=wrap;html=1;" vertex="1" parent="1">
          <mxGeometry x="520" y="120" width="80" height="70" as="geometry" />
        </mxCell>
        <mxCell id="OMwhVyexWKOSLGBDn62Z-50" value="" style="edgeStyle=orthogonalEdgeStyle;rounded=0;orthogonalLoop=1;jettySize=auto;html=1;" edge="1" parent="1" source="OMwhVyexWKOSLGBDn62Z-8" target="OMwhVyexWKOSLGBDn62Z-49">
          <mxGeometry relative="1" as="geometry" />
        </mxCell>
        <mxCell id="OMwhVyexWKOSLGBDn62Z-64" style="edgeStyle=orthogonalEdgeStyle;rounded=0;orthogonalLoop=1;jettySize=auto;html=1;exitX=0.5;exitY=1;exitDx=0;exitDy=0;" edge="1" parent="1" source="OMwhVyexWKOSLGBDn62Z-8" target="OMwhVyexWKOSLGBDn62Z-65">
          <mxGeometry relative="1" as="geometry">
            <mxPoint x="860" y="300" as="targetPoint" />
          </mxGeometry>
        </mxCell>
        <mxCell id="OMwhVyexWKOSLGBDn62Z-8" value="Analyze" style="rhombus;whiteSpace=wrap;html=1;" vertex="1" parent="1">
          <mxGeometry x="690" y="160.01" width="80" height="70" as="geometry" />
        </mxCell>
        <mxCell id="OMwhVyexWKOSLGBDn62Z-48" value="" style="edgeStyle=orthogonalEdgeStyle;rounded=0;orthogonalLoop=1;jettySize=auto;html=1;" edge="1" parent="1" source="OMwhVyexWKOSLGBDn62Z-9" target="OMwhVyexWKOSLGBDn62Z-47">
          <mxGeometry relative="1" as="geometry" />
        </mxCell>
        <mxCell id="OMwhVyexWKOSLGBDn62Z-9" value="Modify" style="rhombus;whiteSpace=wrap;html=1;" vertex="1" parent="1">
          <mxGeometry x="650" y="330" width="80" height="70" as="geometry" />
        </mxCell>
        <mxCell id="OMwhVyexWKOSLGBDn62Z-10" value="Logout" style="rhombus;whiteSpace=wrap;html=1;" vertex="1" parent="1">
          <mxGeometry x="520" y="340" width="80" height="70" as="geometry" />
        </mxCell>
        <mxCell id="OMwhVyexWKOSLGBDn62Z-11" value="Name" style="ellipse;whiteSpace=wrap;html=1;" vertex="1" parent="1">
          <mxGeometry x="150" y="60" width="80" height="50" as="geometry" />
        </mxCell>
        <mxCell id="OMwhVyexWKOSLGBDn62Z-12" value="Age" style="ellipse;whiteSpace=wrap;html=1;" vertex="1" parent="1">
          <mxGeometry x="240" y="20" width="80" height="50" as="geometry" />
        </mxCell>
        <mxCell id="OMwhVyexWKOSLGBDn62Z-13" value="Gender" style="ellipse;whiteSpace=wrap;html=1;" vertex="1" parent="1">
          <mxGeometry x="340" y="60" width="80" height="50" as="geometry" />
        </mxCell>
        <mxCell id="OMwhVyexWKOSLGBDn62Z-14" value="Question 3" style="ellipse;whiteSpace=wrap;html=1;" vertex="1" parent="1">
          <mxGeometry x="-200" y="235" width="80" height="50" as="geometry" />
        </mxCell>
        <mxCell id="OMwhVyexWKOSLGBDn62Z-15" value="Question 2" style="ellipse;whiteSpace=wrap;html=1;" vertex="1" parent="1">
          <mxGeometry x="-170" y="140" width="80" height="50" as="geometry" />
        </mxCell>
        <mxCell id="OMwhVyexWKOSLGBDn62Z-16" value="Question 4" style="ellipse;whiteSpace=wrap;html=1;" vertex="1" parent="1">
          <mxGeometry x="-160" y="330" width="80" height="50" as="geometry" />
        </mxCell>
        <mxCell id="OMwhVyexWKOSLGBDn62Z-17" value="Question 5" style="ellipse;whiteSpace=wrap;html=1;" vertex="1" parent="1">
          <mxGeometry x="-55" y="360" width="80" height="50" as="geometry" />
        </mxCell>
        <mxCell id="OMwhVyexWKOSLGBDn62Z-18" value="Question 1" style="ellipse;whiteSpace=wrap;html=1;" vertex="1" parent="1">
          <mxGeometry x="-55" y="100" width="80" height="50" as="geometry" />
        </mxCell>
        <mxCell id="OMwhVyexWKOSLGBDn62Z-25" style="edgeStyle=orthogonalEdgeStyle;rounded=0;orthogonalLoop=1;jettySize=auto;html=1;exitX=0.5;exitY=0;exitDx=0;exitDy=0;entryX=0.5;entryY=1;entryDx=0;entryDy=0;" edge="1" parent="1" source="OMwhVyexWKOSLGBDn62Z-19" target="OMwhVyexWKOSLGBDn62Z-18">
          <mxGeometry relative="1" as="geometry" />
        </mxCell>
        <mxCell id="OMwhVyexWKOSLGBDn62Z-26" style="edgeStyle=orthogonalEdgeStyle;rounded=0;orthogonalLoop=1;jettySize=auto;html=1;exitX=0;exitY=0.5;exitDx=0;exitDy=0;" edge="1" parent="1" source="OMwhVyexWKOSLGBDn62Z-19">
          <mxGeometry relative="1" as="geometry">
            <mxPoint x="-120" y="260" as="targetPoint" />
          </mxGeometry>
        </mxCell>
        <mxCell id="OMwhVyexWKOSLGBDn62Z-31" style="edgeStyle=orthogonalEdgeStyle;rounded=0;orthogonalLoop=1;jettySize=auto;html=1;exitX=0;exitY=1;exitDx=0;exitDy=0;entryX=0.5;entryY=0;entryDx=0;entryDy=0;" edge="1" parent="1" source="OMwhVyexWKOSLGBDn62Z-19" target="OMwhVyexWKOSLGBDn62Z-16">
          <mxGeometry relative="1" as="geometry" />
        </mxCell>
        <mxCell id="OMwhVyexWKOSLGBDn62Z-32" style="edgeStyle=orthogonalEdgeStyle;rounded=0;orthogonalLoop=1;jettySize=auto;html=1;exitX=0.5;exitY=1;exitDx=0;exitDy=0;" edge="1" parent="1" source="OMwhVyexWKOSLGBDn62Z-19">
          <mxGeometry relative="1" as="geometry">
            <mxPoint x="-15" y="360" as="targetPoint" />
          </mxGeometry>
        </mxCell>
        <mxCell id="OMwhVyexWKOSLGBDn62Z-19" value="Quiz" style="rounded=0;whiteSpace=wrap;html=1;" vertex="1" parent="1">
          <mxGeometry x="-60" y="235" width="90" height="50" as="geometry" />
        </mxCell>
        <mxCell id="OMwhVyexWKOSLGBDn62Z-20" value="Submission" style="whiteSpace=wrap;html=1;" vertex="1" parent="1">
          <mxGeometry x="230" y="430" width="100" height="40" as="geometry" />
        </mxCell>
        <mxCell id="OMwhVyexWKOSLGBDn62Z-27" style="edgeStyle=orthogonalEdgeStyle;rounded=0;orthogonalLoop=1;jettySize=auto;html=1;exitX=0;exitY=0;exitDx=0;exitDy=0;entryX=0.8;entryY=1;entryDx=0;entryDy=0;entryPerimeter=0;" edge="1" parent="1" source="OMwhVyexWKOSLGBDn62Z-19" target="OMwhVyexWKOSLGBDn62Z-15">
          <mxGeometry relative="1" as="geometry" />
        </mxCell>
        <mxCell id="OMwhVyexWKOSLGBDn62Z-47" value="Questions" style="ellipse;whiteSpace=wrap;html=1;" vertex="1" parent="1">
          <mxGeometry x="635" y="470" width="110" height="55" as="geometry" />
        </mxCell>
        <mxCell id="OMwhVyexWKOSLGBDn62Z-57" value="" style="edgeStyle=orthogonalEdgeStyle;rounded=0;orthogonalLoop=1;jettySize=auto;html=1;" edge="1" parent="1" source="OMwhVyexWKOSLGBDn62Z-49" target="OMwhVyexWKOSLGBDn62Z-56">
          <mxGeometry relative="1" as="geometry" />
        </mxCell>
        <mxCell id="OMwhVyexWKOSLGBDn62Z-59" value="" style="edgeStyle=orthogonalEdgeStyle;rounded=0;orthogonalLoop=1;jettySize=auto;html=1;" edge="1" parent="1" source="OMwhVyexWKOSLGBDn62Z-49" target="OMwhVyexWKOSLGBDn62Z-58">
          <mxGeometry relative="1" as="geometry" />
        </mxCell>
        <mxCell id="OMwhVyexWKOSLGBDn62Z-49" value="Chart" style="whiteSpace=wrap;html=1;" vertex="1" parent="1">
          <mxGeometry x="820" y="176.25" width="80" height="37.5" as="geometry" />
        </mxCell>
        <mxCell id="OMwhVyexWKOSLGBDn62Z-51" value="ID" style="ellipse;whiteSpace=wrap;html=1;" vertex="1" parent="1">
          <mxGeometry x="520" y="-10" width="80" height="55" as="geometry" />
        </mxCell>
        <mxCell id="OMwhVyexWKOSLGBDn62Z-54" value="Password" style="ellipse;whiteSpace=wrap;html=1;" vertex="1" parent="1">
          <mxGeometry x="630" y="45" width="80" height="55" as="geometry" />
        </mxCell>
        <mxCell id="OMwhVyexWKOSLGBDn62Z-56" value="datetime" style="ellipse;whiteSpace=wrap;html=1;" vertex="1" parent="1">
          <mxGeometry x="820" y="70" width="80" height="47.5" as="geometry" />
        </mxCell>
        <mxCell id="OMwhVyexWKOSLGBDn62Z-58" value="Number&lt;div&gt;of&lt;/div&gt;&lt;div&gt;Participants&lt;/div&gt;" style="ellipse;whiteSpace=wrap;html=1;" vertex="1" parent="1">
          <mxGeometry x="990" y="165.63" width="90" height="58.75" as="geometry" />
        </mxCell>
        <mxCell id="OMwhVyexWKOSLGBDn62Z-79" style="edgeStyle=orthogonalEdgeStyle;rounded=0;orthogonalLoop=1;jettySize=auto;html=1;exitX=0.5;exitY=1;exitDx=0;exitDy=0;entryX=0.5;entryY=0;entryDx=0;entryDy=0;" edge="1" parent="1" source="OMwhVyexWKOSLGBDn62Z-65" target="OMwhVyexWKOSLGBDn62Z-76">
          <mxGeometry relative="1" as="geometry" />
        </mxCell>
        <mxCell id="OMwhVyexWKOSLGBDn62Z-81" style="edgeStyle=orthogonalEdgeStyle;rounded=0;orthogonalLoop=1;jettySize=auto;html=1;exitX=1;exitY=1;exitDx=0;exitDy=0;entryX=0.5;entryY=0;entryDx=0;entryDy=0;" edge="1" parent="1" source="OMwhVyexWKOSLGBDn62Z-65" target="OMwhVyexWKOSLGBDn62Z-67">
          <mxGeometry relative="1" as="geometry" />
        </mxCell>
        <mxCell id="OMwhVyexWKOSLGBDn62Z-82" style="edgeStyle=orthogonalEdgeStyle;rounded=0;orthogonalLoop=1;jettySize=auto;html=1;exitX=1;exitY=0.5;exitDx=0;exitDy=0;entryX=0;entryY=0;entryDx=0;entryDy=0;" edge="1" parent="1" source="OMwhVyexWKOSLGBDn62Z-65" target="OMwhVyexWKOSLGBDn62Z-66">
          <mxGeometry relative="1" as="geometry" />
        </mxCell>
        <mxCell id="OMwhVyexWKOSLGBDn62Z-86" style="edgeStyle=orthogonalEdgeStyle;rounded=0;orthogonalLoop=1;jettySize=auto;html=1;exitX=1;exitY=0;exitDx=0;exitDy=0;" edge="1" parent="1" source="OMwhVyexWKOSLGBDn62Z-65">
          <mxGeometry relative="1" as="geometry">
            <mxPoint x="1040" y="359" as="targetPoint" />
          </mxGeometry>
        </mxCell>
        <mxCell id="OMwhVyexWKOSLGBDn62Z-87" style="edgeStyle=orthogonalEdgeStyle;rounded=0;orthogonalLoop=1;jettySize=auto;html=1;exitX=0;exitY=1;exitDx=0;exitDy=0;" edge="1" parent="1" source="OMwhVyexWKOSLGBDn62Z-65" target="OMwhVyexWKOSLGBDn62Z-77">
          <mxGeometry relative="1" as="geometry" />
        </mxCell>
        <mxCell id="OMwhVyexWKOSLGBDn62Z-65" value="Answers" style="ellipse;whiteSpace=wrap;html=1;" vertex="1" parent="1">
          <mxGeometry x="860" y="350" width="100" height="60" as="geometry" />
        </mxCell>
        <mxCell id="OMwhVyexWKOSLGBDn62Z-67" value="Question 3" style="ellipse;whiteSpace=wrap;html=1;" vertex="1" parent="1">
          <mxGeometry x="960" y="470" width="80" height="50" as="geometry" />
        </mxCell>
        <mxCell id="OMwhVyexWKOSLGBDn62Z-68" value="Question 5" style="ellipse;whiteSpace=wrap;html=1;" vertex="1" parent="1">
          <mxGeometry x="1040" y="330" width="80" height="50" as="geometry" />
        </mxCell>
        <mxCell id="OMwhVyexWKOSLGBDn62Z-66" value="Question 4" style="ellipse;whiteSpace=wrap;html=1;" vertex="1" parent="1">
          <mxGeometry x="1020" y="410" width="80" height="50" as="geometry" />
        </mxCell>
        <mxCell id="OMwhVyexWKOSLGBDn62Z-76" value="Question 2" style="ellipse;whiteSpace=wrap;html=1;" vertex="1" parent="1">
          <mxGeometry x="880" y="495" width="80" height="50" as="geometry" />
        </mxCell>
        <mxCell id="OMwhVyexWKOSLGBDn62Z-77" value="Question 1" style="ellipse;whiteSpace=wrap;html=1;" vertex="1" parent="1">
          <mxGeometry x="780" y="490" width="80" height="50" as="geometry" />
        </mxCell>
      </root>
    </mxGraphModel>
  </diagram>
</mxfile>
